<mxfile host="app.diagrams.net" agent="Mozilla/5.0 (Windows NT 10.0; Win64; x64) AppleWebKit/537.36 (KHTML, like Gecko) Chrome/127.0.0.0 Safari/537.36" version="24.7.6">
  <diagram name="Page-1" id="Lwr71Wci7mmj0tz-UTTS">
    <mxGraphModel dx="1434" dy="746" grid="1" gridSize="10" guides="1" tooltips="1" connect="1" arrows="1" fold="1" page="1" pageScale="1" pageWidth="850" pageHeight="1100" math="0" shadow="0">
      <root>
        <mxCell id="0" />
        <mxCell id="1" parent="0" />
        <mxCell id="es8UvVrxxHzEmLQL1H-m-3" value="" style="edgeStyle=orthogonalEdgeStyle;rounded=0;orthogonalLoop=1;jettySize=auto;html=1;" edge="1" parent="1" source="es8UvVrxxHzEmLQL1H-m-1" target="es8UvVrxxHzEmLQL1H-m-2">
          <mxGeometry relative="1" as="geometry" />
        </mxCell>
        <mxCell id="es8UvVrxxHzEmLQL1H-m-1" value="start" style="strokeWidth=2;html=1;shape=mxgraph.flowchart.start_1;whiteSpace=wrap;" vertex="1" parent="1">
          <mxGeometry x="375" y="30" width="100" height="60" as="geometry" />
        </mxCell>
        <mxCell id="es8UvVrxxHzEmLQL1H-m-5" value="" style="edgeStyle=orthogonalEdgeStyle;rounded=0;orthogonalLoop=1;jettySize=auto;html=1;" edge="1" parent="1" source="es8UvVrxxHzEmLQL1H-m-2" target="es8UvVrxxHzEmLQL1H-m-4">
          <mxGeometry relative="1" as="geometry" />
        </mxCell>
        <mxCell id="es8UvVrxxHzEmLQL1H-m-2" value="Declarations&lt;div&gt;&lt;span style=&quot;white-space: pre;&quot;&gt;&#x9;&lt;/span&gt;num year&lt;br&gt;&lt;/div&gt;" style="whiteSpace=wrap;html=1;strokeWidth=2;align=left;" vertex="1" parent="1">
          <mxGeometry x="365" y="120" width="120" height="60" as="geometry" />
        </mxCell>
        <mxCell id="es8UvVrxxHzEmLQL1H-m-17" value="" style="edgeStyle=orthogonalEdgeStyle;rounded=0;orthogonalLoop=1;jettySize=auto;html=1;" edge="1" parent="1" source="es8UvVrxxHzEmLQL1H-m-4" target="es8UvVrxxHzEmLQL1H-m-16">
          <mxGeometry relative="1" as="geometry" />
        </mxCell>
        <mxCell id="es8UvVrxxHzEmLQL1H-m-23" value="" style="edgeStyle=orthogonalEdgeStyle;rounded=0;orthogonalLoop=1;jettySize=auto;html=1;" edge="1" parent="1" source="es8UvVrxxHzEmLQL1H-m-4" target="es8UvVrxxHzEmLQL1H-m-7">
          <mxGeometry relative="1" as="geometry" />
        </mxCell>
        <mxCell id="es8UvVrxxHzEmLQL1H-m-4" value="Scanner input" style="shape=parallelogram;perimeter=parallelogramPerimeter;whiteSpace=wrap;html=1;fixedSize=1;align=center;strokeWidth=2;" vertex="1" parent="1">
          <mxGeometry x="365" y="200" width="120" height="60" as="geometry" />
        </mxCell>
        <mxCell id="es8UvVrxxHzEmLQL1H-m-9" value="" style="edgeStyle=orthogonalEdgeStyle;rounded=0;orthogonalLoop=1;jettySize=auto;html=1;" edge="1" parent="1" source="es8UvVrxxHzEmLQL1H-m-7" target="es8UvVrxxHzEmLQL1H-m-8">
          <mxGeometry relative="1" as="geometry" />
        </mxCell>
        <mxCell id="es8UvVrxxHzEmLQL1H-m-7" value="while(true)" style="strokeWidth=2;html=1;shape=mxgraph.flowchart.terminator;whiteSpace=wrap;" vertex="1" parent="1">
          <mxGeometry x="550" y="200" width="100" height="60" as="geometry" />
        </mxCell>
        <mxCell id="es8UvVrxxHzEmLQL1H-m-11" value="" style="edgeStyle=orthogonalEdgeStyle;rounded=0;orthogonalLoop=1;jettySize=auto;html=1;" edge="1" parent="1" source="es8UvVrxxHzEmLQL1H-m-8" target="es8UvVrxxHzEmLQL1H-m-10">
          <mxGeometry relative="1" as="geometry" />
        </mxCell>
        <mxCell id="es8UvVrxxHzEmLQL1H-m-8" value="Output" style="shape=parallelogram;perimeter=parallelogramPerimeter;whiteSpace=wrap;html=1;fixedSize=1;strokeWidth=2;" vertex="1" parent="1">
          <mxGeometry x="540" y="280" width="120" height="60" as="geometry" />
        </mxCell>
        <mxCell id="es8UvVrxxHzEmLQL1H-m-10" value="if year == 0" style="rhombus;whiteSpace=wrap;html=1;strokeWidth=2;" vertex="1" parent="1">
          <mxGeometry x="560" y="360" width="80" height="80" as="geometry" />
        </mxCell>
        <mxCell id="es8UvVrxxHzEmLQL1H-m-19" value="" style="edgeStyle=orthogonalEdgeStyle;rounded=0;orthogonalLoop=1;jettySize=auto;html=1;" edge="1" parent="1" source="es8UvVrxxHzEmLQL1H-m-16" target="es8UvVrxxHzEmLQL1H-m-18">
          <mxGeometry relative="1" as="geometry" />
        </mxCell>
        <mxCell id="es8UvVrxxHzEmLQL1H-m-16" value="testing" style="shape=parallelogram;perimeter=parallelogramPerimeter;whiteSpace=wrap;html=1;fixedSize=1;align=center;strokeWidth=2;" vertex="1" parent="1">
          <mxGeometry x="365" y="280" width="120" height="60" as="geometry" />
        </mxCell>
        <mxCell id="es8UvVrxxHzEmLQL1H-m-21" value="" style="edgeStyle=orthogonalEdgeStyle;rounded=0;orthogonalLoop=1;jettySize=auto;html=1;" edge="1" parent="1" source="es8UvVrxxHzEmLQL1H-m-18" target="es8UvVrxxHzEmLQL1H-m-20">
          <mxGeometry relative="1" as="geometry" />
        </mxCell>
        <mxCell id="es8UvVrxxHzEmLQL1H-m-18" value="output" style="whiteSpace=wrap;html=1;strokeWidth=2;" vertex="1" parent="1">
          <mxGeometry x="365" y="370" width="120" height="60" as="geometry" />
        </mxCell>
        <mxCell id="es8UvVrxxHzEmLQL1H-m-20" value="close" style="rounded=1;whiteSpace=wrap;html=1;strokeWidth=2;" vertex="1" parent="1">
          <mxGeometry x="365" y="510" width="120" height="60" as="geometry" />
        </mxCell>
      </root>
    </mxGraphModel>
  </diagram>
</mxfile>
